# xmcd
#
# Track frame offsets:
#	150
#	26107
#	45745
#	63058
#	98611
#	125870
#	148377
#	166242
#	186802
#	208295
#	238730
#	259126
#	286664
#	315358
#
# Disc length: 4473 seconds
#
# Revision: 0
# Processed by: cddbd v1.5PL3 Copyright (c) Steve Scherf et al.
# Submitted via: dBpowerAMP V4.0
#
DISCID=ce11770e
DTITLE=Jill West And Blues Attack - Facefull Of Blues
DYEAR=2001
DGENRE=Blues
TTITLE0=Beggin' Song
TTITLE1=Watchin 'N Waitin'
TTITLE2=Four Letter Word
TTITLE3=Bye Bye Baby
TTITLE4=Can I Change My Mind?
TTITLE5=The Other Woman
TTITLE6=Bottoms Up
TTITLE7=Let Me Know
TTITLE8=Rock You Down
TTITLE9=I Put A Spell On You
TTITLE10=Talk To Me
TTITLE11=Still Got The Blues (For You)
TTITLE12=Don't Worry 'Bout The Weather
TTITLE13=Miss Celie's Blues
EXTD=
EXTT0=
EXTT1=
EXTT2=
EXTT3=
EXTT4=
EXTT5=
EXTT6=
EXTT7=
EXTT8=
EXTT9=
EXTT10=
EXTT11=
EXTT12=
EXTT13=
PLAYORDER=
